<?xml version="1.0" standalone="no"?>
<!DOCTYPE svg PUBLIC "-//W3C//DTD SVG 20010904//EN"
 "http://www.w3.org/TR/2001/REC-SVG-20010904/DTD/svg10.dtd">
<svg version="1.0" xmlns="http://www.w3.org/2000/svg"
 width="260.000000pt" height="260.000000pt" viewBox="0 0 260.000000 260.000000"
 preserveAspectRatio="xMidYMid meet">
<metadata>
Created by potrace 1.14, written by Peter Selinger 2001-2017
</metadata>
<g transform="translate(0.000000,260.000000) scale(0.100000,-0.100000)"
fill="#000000" stroke="none">
<path d="M778 2445 c-2 -2 -28 -6 -58 -9 -256 -30 -494 -211 -593 -451 -21
-53 -29 -75 -44 -135 -12 -47 -14 -222 -3 -270 6 -30 14 -66 16 -80 9 -44 60
-155 97 -212 74 -111 214 -229 325 -274 34 -13 42 -21 43 -43 6 -183 83 -361
214 -495 137 -139 305 -213 504 -222 360 -15 681 237 756 594 8 37 15 85 15
108 0 39 2 41 53 64 85 38 151 84 224 157 64 65 153 197 153 228 0 7 4 16 9
19 7 5 24 58 37 116 39 174 0 394 -99 553 -104 166 -262 279 -462 330 -203 51
-439 2 -614 -128 l-44 -32 -71 47 c-120 81 -254 127 -390 134 -36 1 -67 2 -68
1z m261 -132 c56 -21 125 -58 168 -91 l33 -24 -44 -62 c-91 -128 -140 -264
-145 -403 -1 -29 -7 -35 -73 -68 -40 -21 -94 -53 -120 -72 -121 -88 -234 -258
-272 -408 -10 -38 -20 -76 -22 -83 -8 -26 -125 49 -209 133 -269 268 -262 680
15 943 98 93 253 160 395 171 88 7 199 -8 274 -36z m843 33 c230 -21 462 -212
536 -441 81 -251 16 -503 -175 -687 -69 -65 -191 -138 -197 -116 -2 7 -12 45
-21 83 -54 214 -209 397 -417 493 -40 18 -48 27 -49 50 -4 148 -67 318 -160
431 -27 33 -28 36 -11 51 47 44 180 108 263 126 37 8 153 20 164 18 6 -2 35
-5 67 -8z m-483 -352 c33 -67 57 -145 67 -218 l7 -48 -59 7 c-68 8 -146 8
-223 -1 l-53 -6 7 53 c16 113 75 253 140 327 l20 24 32 -39 c18 -21 46 -65 62
-99z m39 -356 c38 -10 38 -12 12 -107 -24 -85 -58 -156 -108 -225 l-35 -48
-19 23 c-61 78 -118 197 -133 275 -2 16 -7 39 -9 51 -4 17 1 24 17 28 12 2 31
6 42 9 34 7 198 3 233 -6z m-364 -115 c21 -91 71 -196 128 -272 l40 -53 -28
-24 c-46 -38 -164 -93 -242 -114 -54 -13 -100 -17 -180 -15 -132 3 -141 7
-135 48 9 64 36 143 71 212 46 88 172 217 257 262 33 18 62 33 65 33 3 0 13
-35 24 -77z m596 17 c140 -95 238 -238 274 -399 9 -40 15 -75 13 -78 -24 -23
-230 -25 -318 -3 -77 20 -196 76 -241 113 l-28 23 39 52 c54 72 104 175 125
258 10 38 20 75 22 81 5 18 41 3 114 -47z m-214 -503 c143 -72 290 -96 453
-75 l54 7 -6 -59 c-16 -147 -114 -323 -236 -423 -156 -127 -383 -177 -579
-126 -254 65 -455 292 -487 553 l-8 58 44 -8 c84 -16 229 -9 313 15 88 24 213
85 266 130 l34 28 51 -37 c27 -21 73 -49 101 -63z"/>
</g>
</svg>
